<?xml version="1.0" standalone="no"?>
<!DOCTYPE svg PUBLIC "-//W3C//DTD SVG 20010904//EN"
 "http://www.w3.org/TR/2001/REC-SVG-20010904/DTD/svg10.dtd">
<svg version="1.0" xmlns="http://www.w3.org/2000/svg"
 width="150.000000pt" height="150.000000pt" viewBox="0 0 150.000000 150.000000"
 preserveAspectRatio="xMidYMid meet">

<g transform="translate(0.000000,150.000000) scale(0.100000,-0.100000)"
fill="#000000" stroke="none">
<path d="M669 1360 c-138 -22 -248 -80 -349 -186 -94 -99 -160 -240 -160 -344
0 -34 -3 -37 -47 -50 -45 -14 -23 -15 294 -18 188 -1 498 -1 690 0 323 3 345
4 300 18 -28 8 -46 19 -43 26 10 26 -26 153 -64 231 -111 225 -373 361 -621
323z m212 -24 c186 -40 355 -187 424 -370 21 -57 44 -166 34 -166 -2 0 -26 8
-53 18 -49 17 -77 44 -63 59 5 4 12 1 16 -6 6 -8 11 -9 15 -3 8 14 -11 25 -31
18 -15 -6 -14 -41 3 -98 3 -10 1 -18 -4 -18 -5 0 -12 26 -16 58 -21 185 -186
351 -380 385 -234 40 -470 -126 -517 -364 -6 -32 -17 -59 -23 -59 -6 0 -4 -5
4 -10 8 -5 10 -10 4 -10 -17 0 -25 12 -15 24 16 19 24 83 11 91 -16 10 -43 -3
-34 -16 4 -8 9 -7 15 2 4 7 11 10 16 6 14 -15 -14 -42 -62 -60 -26 -10 -50
-16 -52 -13 -12 11 24 140 59 215 114 240 386 372 649 317z m64 -175 c121 -60
223 -188 242 -305 5 -34 4 -36 -21 -36 -14 0 -26 5 -26 11 0 6 9 8 21 4 15 -5
20 -3 17 5 -3 9 -41 12 -132 12 -117 0 -130 -2 -149 -21 l-21 -21 157 0 c150
0 157 -1 157 -20 0 -20 -7 -20 -435 -20 -424 0 -435 0 -435 19 0 18 7 20 73
20 39 0 112 0 160 0 l88 1 -36 32 c-46 40 -75 96 -75 145 0 66 62 140 95 113
17 -14 32 7 16 23 -19 19 -83 -22 -106 -68 -11 -22 -21 -42 -22 -44 -2 -2 -9
2 -18 9 -15 13 -12 25 6 25 5 0 9 5 9 10 0 17 -22 11 -34 -8 -9 -15 -6 -22 17
-41 15 -12 27 -32 27 -44 0 -18 -4 -21 -29 -16 -16 4 -32 1 -35 -5 -5 -8 -13
-8 -27 -1 -23 13 -24 33 -3 54 18 19 36 12 27 -9 -3 -8 0 -15 7 -15 6 0 10 10
8 22 -3 26 -32 35 -53 18 -20 -16 -19 -69 0 -76 24 -9 19 -37 -5 -29 -15 5
-20 2 -20 -10 0 -12 5 -15 16 -11 10 4 25 -1 35 -10 24 -21 53 -14 57 15 2 15
0 21 -7 16 -6 -3 -9 -10 -6 -15 10 -16 -12 -20 -31 -6 -15 12 -16 16 -5 30 19
23 54 20 77 -6 55 -63 60 -60 -69 -57 -68 1 -116 -1 -114 -7 1 -5 7 -9 14 -9
6 0 15 -4 19 -8 4 -4 -7 -7 -25 -7 -33 0 -33 0 -26 38 18 100 88 204 179 267
89 61 144 76 266 73 97 -3 111 -6 175 -37z m-475 -331 c0 -5 -2 -10 -4 -10 -3
0 -8 5 -11 10 -3 6 -1 10 4 10 6 0 11 -4 11 -10z m35 0 c3 -5 2 -10 -4 -10 -5
0 -13 5 -16 10 -3 6 -2 10 4 10 5 0 13 -4 16 -10z m30 0 c3 -5 1 -10 -4 -10
-6 0 -11 5 -11 10 0 6 2 10 4 10 3 0 8 -4 11 -10z m30 0 c3 -5 1 -10 -4 -10
-6 0 -11 5 -11 10 0 6 2 10 4 10 3 0 8 -4 11 -10z m365 0 c0 -5 -5 -10 -11
-10 -5 0 -7 5 -4 10 3 6 8 10 11 10 2 0 4 -4 4 -10z m65 0 c-3 -4 -16 -7 -30
-7 -13 0 -23 3 -20 7 3 4 16 8 30 8 13 0 23 -4 20 -8z m95 0 c0 -5 -5 -10 -11
-10 -5 0 -7 5 -4 10 3 6 8 10 11 10 2 0 4 -4 4 -10z m30 0 c0 -5 -5 -10 -11
-10 -5 0 -7 5 -4 10 3 6 8 10 11 10 2 0 4 -4 4 -10z m-903 -52 c-3 -8 -6 -5
-6 6 -1 11 2 17 5 13 3 -3 4 -12 1 -19z m1036 7 c-3 -9 -8 -14 -10 -11 -3 3
-2 9 2 15 9 16 15 13 8 -4z"/>
<path d="M747 1323 c-4 -3 -7 -19 -7 -35 0 -24 2 -27 14 -16 9 8 10 15 4 19
-6 4 -5 9 3 12 11 4 11 6 1 6 -7 1 -10 6 -7 11 7 11 2 13 -8 3z"/>
<path d="M648 1305 c-7 -7 2 -55 11 -55 3 0 6 14 6 30 0 29 -5 36 -17 25z"/>
<path d="M827 1285 c-6 -35 0 -46 13 -25 7 10 10 11 10 3 0 -24 15 -13 16 12
1 14 -2 25 -7 25 -5 0 -9 -6 -10 -12 0 -7 -4 -4 -8 7 -7 17 -9 16 -14 -10z"/>
<path d="M550 1270 c-12 -8 -12 -10 3 -16 11 -4 16 -13 12 -22 -5 -13 -3 -13
11 -1 14 12 14 14 0 24 -9 7 -13 15 -9 18 9 10 0 8 -17 -3z"/>
<path d="M924 1255 c-9 -35 0 -41 14 -10 7 14 8 27 2 30 -5 3 -12 -6 -16 -20z"/>
<path d="M480 1234 c0 -5 7 -19 15 -30 8 -10 15 -14 15 -8 0 5 -7 19 -15 30
-8 10 -15 14 -15 8z"/>
<path d="M992 1227 c-6 -7 -8 -18 -4 -24 5 -7 11 -3 19 13 12 26 3 33 -15 11z"/>
<path d="M1023 1205 c-6 -14 -7 -25 -2 -25 11 0 22 25 17 39 -1 6 -8 -1 -15
-14z"/>
<path d="M410 1193 c0 -5 9 -18 20 -28 11 -10 20 -14 20 -8 0 5 -9 18 -20 28
-11 10 -20 14 -20 8z"/>
<path d="M1090 1159 c0 -12 -4 -18 -11 -13 -7 4 -10 2 -8 -5 3 -7 9 -12 14
-12 13 2 26 51 14 51 -5 0 -9 -9 -9 -21z"/>
<path d="M380 1162 c0 -5 10 -17 22 -28 12 -10 18 -14 15 -7 -4 6 -1 13 5 16
16 5 10 12 -19 21 -13 4 -23 3 -23 -2z"/>
<path d="M871 1117 c-14 -18 -2 -30 15 -16 16 13 45 -1 73 -37 28 -36 29 -116
0 -163 -27 -45 -18 -50 15 -6 20 26 34 35 57 35 33 0 48 -22 29 -45 -16 -19
-30 -19 -30 0 0 8 -5 15 -11 15 -6 0 -9 -8 -7 -17 4 -24 41 -28 62 -8 9 10 23
14 31 11 9 -3 15 1 15 10 0 11 -6 13 -20 9 -14 -5 -20 -2 -20 9 0 9 4 16 10
16 5 0 14 9 20 21 17 30 -13 73 -45 65 -20 -5 -24 -2 -27 21 -3 30 -38 47 -38
19 0 -10 6 -13 16 -9 12 4 15 1 12 -13 -5 -30 -26 -22 -46 16 -15 30 -72 80
-92 80 -4 0 -13 -6 -19 -13z m181 -147 c5 0 8 7 5 15 -4 8 -2 17 4 21 16 9 40
-17 37 -40 -3 -18 -10 -21 -56 -21 -40 -1 -51 2 -47 13 3 7 5 20 5 27 0 21 34
23 38 3 2 -10 8 -18 14 -18z"/>
<path d="M720 1073 c-19 -9 -38 -16 -41 -15 -3 0 -7 -16 -8 -36 -2 -44 -7 -74
-19 -124 l-10 -37 64 -6 c35 -4 88 -4 118 -1 l54 7 -8 33 c-4 19 -11 40 -16
47 -4 8 -7 26 -5 41 4 39 -24 84 -60 97 -18 6 -32 11 -33 11 -1 -1 -17 -8 -36
-17z m84 -24 c26 -21 35 -69 18 -96 -28 -44 -125 -29 -134 21 -3 15 -1 26 6
26 6 0 17 9 24 20 7 11 17 20 24 20 7 0 3 -6 -8 -14 -10 -8 -16 -17 -13 -20 6
-6 59 16 59 24 0 11 -16 27 -30 33 -10 4 -9 6 6 6 12 1 33 -8 48 -20z m-91
-13 c-10 -13 -20 -22 -22 -20 -4 4 29 44 36 44 2 0 -4 -11 -14 -24z"/>
<path d="M115 640 c0 -73 3 -90 15 -90 12 0 15 12 13 57 l-2 58 16 -57 c9 -32
20 -58 24 -58 4 0 14 26 23 58 l15 57 -3 -57 c-2 -53 -1 -58 18 -58 20 0 21 5
21 90 0 84 -1 91 -20 88 -14 -2 -23 -17 -34 -63 l-15 -60 -18 63 c-14 45 -23
62 -36 62 -15 0 -17 -12 -17 -90z"/>
<path d="M288 703 c31 -44 48 -111 34 -134 -11 -17 -9 -19 10 -19 21 0 23 4
20 44 -3 29 3 60 17 90 15 36 17 46 6 46 -7 0 -16 -13 -20 -30 -4 -16 -11 -30
-16 -30 -5 0 -12 14 -15 30 -5 24 -12 30 -31 30 l-24 0 19 -27z"/>
<path d="M428 719 c-29 -17 -23 -64 12 -89 29 -21 40 -53 21 -64 -15 -10 -42
5 -52 28 -7 18 -8 17 -6 -9 2 -27 6 -30 39 -33 29 -3 39 1 48 18 17 31 5 62
-30 83 -33 20 -39 44 -14 54 11 4 22 -1 30 -12 13 -18 14 -17 14 8 0 21 -5 27
-22 27 -13 0 -31 -5 -40 -11z"/>
<path d="M520 715 c0 -17 16 -20 25 -5 3 6 13 10 21 10 19 0 21 -156 2 -163
-7 -3 -3 -6 10 -6 12 -1 25 0 28 2 4 1 6 39 5 85 -2 77 -1 82 18 82 12 0 21
-5 21 -11 0 -5 5 -7 10 -4 26 16 3 25 -65 25 -60 0 -75 -3 -75 -15z"/>
<path d="M928 648 l3 -83 -30 32 c-27 29 -29 35 -18 62 16 42 -3 61 -61 61
-36 0 -43 -3 -34 -12 16 -16 16 -115 0 -121 -7 -3 -1 -6 13 -6 23 -1 26 2 21
24 -6 36 12 31 58 -15 23 -23 50 -40 63 -40 21 0 22 3 22 90 0 83 -1 90 -20
90 -19 0 -20 -6 -17 -82z m-74 46 c18 -18 5 -54 -19 -54 -15 0 -22 50 -8 63 9
9 9 9 27 -9z"/>
<path d="M1173 653 c9 -83 16 -98 47 -106 39 -10 55 16 60 102 4 68 3 81 -10
81 -12 0 -14 -13 -12 -73 3 -57 0 -76 -12 -86 -13 -11 -19 -11 -32 0 -12 10
-15 29 -12 86 3 68 2 73 -18 73 -19 0 -20 -3 -11 -77z"/>
<path d="M1327 712 c-26 -29 -20 -54 20 -88 33 -27 36 -34 24 -48 -18 -21 -26
-20 -51 7 l-22 22 4 -25 c2 -20 9 -26 36 -28 42 -4 62 12 62 49 0 20 -8 34
-27 46 -46 29 -54 49 -27 60 10 4 22 -1 29 -11 14 -18 22 -12 21 14 -1 23 -49
24 -69 2z"/>
<path d="M1015 695 c-31 -30 -32 -56 -2 -91 46 -54 130 -23 130 47 0 64 -81
92 -128 44z m85 -5 c36 -36 17 -100 -30 -100 -41 0 -65 74 -34 104 21 21 40
20 64 -4z"/>
<path d="M675 625 l0 -75 37 0 c20 0 40 5 43 11 11 16 -3 23 -19 10 -20 -17
-36 -5 -36 26 0 22 3 24 25 19 21 -5 25 -3 25 15 0 18 -3 19 -15 9 -18 -15
-35 -5 -35 22 0 16 5 19 25 16 17 -4 25 -1 25 8 0 9 -13 14 -37 14 l-38 0 0
-75z"/>
<path d="M149 487 c20 -10 23 -16 17 -54 -3 -25 -1 -45 5 -49 13 -8 36 13 25
23 -4 4 -11 1 -16 -7 -8 -13 -10 -12 -10 2 0 17 36 34 149 68 l65 19 50 -47
c96 -91 196 -132 321 -132 125 0 225 40 316 126 l56 54 97 -30 c54 -16 102
-32 107 -35 16 -10 10 -25 -7 -18 -12 4 -15 2 -12 -8 3 -8 11 -14 19 -14 11 0
13 12 11 54 -2 29 0 51 5 48 5 -3 15 -2 23 4 9 5 -229 8 -615 8 -477 0 -624
-3 -606 -12z m941 -8 c0 -4 -21 -25 -46 -49 -156 -144 -413 -144 -578 1 -25
22 -46 44 -46 47 0 4 151 7 335 7 184 0 335 -3 335 -6z"/>
<path d="M480 451 c0 -6 15 -21 33 -34 67 -50 193 -80 217 -53 13 17 6 51 -9
41 -6 -3 -8 -12 -4 -20 3 -8 0 -15 -6 -15 -18 0 -12 36 9 55 11 10 20 22 20
27 0 4 -58 8 -130 8 -75 0 -130 -4 -130 -9z m47 -23 c-3 -8 -6 -5 -6 6 -1 11
2 17 5 13 3 -3 4 -12 1 -19z m43 -9 c0 -10 -4 -19 -10 -19 -5 0 -10 12 -10 26
0 14 4 23 10 19 6 -3 10 -15 10 -26z m30 1 c0 -16 -4 -30 -10 -30 -5 0 -10 14
-10 30 0 17 5 30 10 30 6 0 10 -13 10 -30z m30 -5 c0 -19 -4 -35 -10 -35 -11
0 -14 53 -3 63 11 12 13 8 13 -28z m30 -6 c0 -24 -4 -38 -10 -34 -17 10 -11
75 7 75 2 0 3 -18 3 -41z m30 1 c0 -22 -4 -40 -10 -40 -11 0 -14 63 -3 73 11
12 13 8 13 -33z m30 36 c0 -3 -4 -8 -10 -11 -5 -3 -10 -1 -10 4 0 6 5 11 10
11 6 0 10 -2 10 -4z"/>
<path d="M770 452 c0 -5 9 -17 20 -27 21 -19 27 -55 10 -55 -5 0 -7 7 -4 15 4
8 1 15 -4 15 -18 0 -24 -20 -11 -36 25 -31 164 7 225 61 l39 34 -137 1 c-76 0
-138 -4 -138 -8z m70 -42 c0 -22 -3 -40 -7 -40 -7 0 -9 48 -5 73 5 22 12 2 12
-33z m30 -1 c0 -24 -4 -38 -10 -34 -17 10 -11 75 7 75 2 0 3 -18 3 -41z m30 6
c0 -19 -4 -35 -10 -35 -5 0 -10 16 -10 35 0 19 5 35 10 35 6 0 10 -16 10 -35z
m30 5 c0 -16 -4 -30 -10 -30 -11 0 -14 43 -3 53 11 12 13 8 13 -23z m31 -13
c-8 -8 -11 -3 -11 19 1 25 2 27 11 11 8 -14 8 -22 0 -30z m26 21 c-3 -8 -6 -5
-6 6 -1 11 2 17 5 13 3 -3 4 -12 1 -19z"/>
<path d="M260 423 c0 -5 19 -30 41 -56 61 -71 167 -141 262 -174 70 -24 98
-28 192 -28 135 0 222 25 329 95 88 57 195 171 159 170 -5 -1 -23 -21 -41 -45
-40 -55 -124 -118 -206 -155 -237 -107 -530 -40 -689 159 -30 38 -47 50 -47
34z"/>
<path d="M1076 392 c-4 -7 0 -15 11 -19 10 -4 21 -11 25 -17 5 -7 8 -4 8 7 0
9 -6 17 -14 17 -8 0 -16 5 -18 12 -3 9 -6 9 -12 0z"/>
<path d="M440 350 c-11 -21 -6 -40 11 -40 6 0 7 4 4 10 -3 5 -1 19 5 30 7 13
7 20 1 20 -6 0 -15 -9 -21 -20z"/>
<path d="M1030 350 c0 -6 4 -10 9 -10 5 0 12 -8 14 -17 4 -14 5 -13 6 3 0 12
-6 24 -14 28 -8 3 -15 1 -15 -4z"/>
<path d="M1002 323 c2 -10 12 -19 23 -20 11 -2 14 0 8 3 -7 3 -13 12 -13 20 0
8 -5 14 -11 14 -6 0 -9 -8 -7 -17z"/>
<path d="M503 310 c-7 -10 -9 -21 -4 -24 4 -3 13 6 19 19 14 30 2 33 -15 5z"/>
<path d="M954 307 c3 -10 6 -23 6 -28 0 -5 5 -9 10 -9 14 0 12 13 -6 36 -14
17 -15 17 -10 1z"/>
<path d="M564 280 c-1 -16 3 -27 7 -24 5 3 9 12 9 20 0 8 6 14 13 14 8 0 7 4
-3 10 -22 14 -25 13 -26 -20z"/>
<path d="M805 269 c-4 -17 -4 -33 -1 -36 3 -4 6 0 6 8 0 12 2 12 10 -1 14 -22
23 -5 10 19 -6 12 -8 26 -5 31 3 6 2 10 -4 10 -5 0 -12 -14 -16 -31z"/>
<path d="M640 276 c0 -8 -3 -21 -6 -30 -5 -12 0 -16 17 -16 18 0 20 3 10 9 -8
5 -12 18 -8 30 3 12 1 21 -4 21 -5 0 -9 -6 -9 -14z"/>
<path d="M878 265 c4 -24 22 -36 22 -14 0 5 4 8 9 5 5 -4 7 3 4 15 -4 16 -8
17 -14 7 -7 -10 -9 -10 -9 0 0 6 -4 12 -9 12 -4 0 -6 -11 -3 -25z"/>
<path d="M710 251 c0 -17 5 -31 11 -31 5 0 7 6 3 13 -6 9 -3 8 9 -1 14 -12 16
-10 14 15 -3 41 -37 45 -37 4z"/>
</g>
</svg>
